<svg id="Layer_1" data-name="Layer 1" xmlns="http://www.w3.org/2000/svg" viewBox="0 0 1230.97 1398">
    <defs>
        <style>
            .cls-1,
            .cls-2 {
                fill: none;
                stroke-miterlimit: 10;
            }

            .cls-1 {
                stroke: #00ffa3;
                stroke-width: 3px;
                stroke-dasharray:200;
                stroke-dashoffset: 0;
                animation: testmove 4s infinite;
            }

            @keyframes testmove {
                0% {
                stroke-dashoffset: 200;
                stroke: #88d8b0;
                }
                25% {
                stroke-dashoffset: 50;
                stroke: #ff6f69;
                }
                50% {
                stroke-dashoffset: 200;
                stroke: #88d8b0;
                }
                51% {
                stroke-dashoffset: 200;
                stroke: #88d8b0;
                }
                75% {
                stroke-dashoffset: 50;
                stroke: #ff6f69;
                }
                90%{
                stroke-dashoffset: 0;
                stroke: #ffeead;
                }
                100%{
                stroke-dashoffset: 200;
                stroke: #88d8b0;
                
                }
            }

</style>
    </defs>
    <title>imgcalaca</title>
    <polygon class="cls-1" points="260.47 189.5 272.47 203.5 293.13 212.84 313.8 212.84 331.13 212.84 345.8 208.84 359.13 198.84 376.47 184.17 383.13 178.17 383.13 170.84 383.13 165.5 383.13 161.5 386.47 156.84 383.13 151.5 379.8 143.5 381.13 136.17 367.8 128.84 347.8 128.84 333.13 125.5 316.47 125.5 297.8 128.84 287.13 131.5 278.47 138.84 267.13 151.5 260.47 165.5 260.47 189.5" />
    <polygon class="cls-1" points="446.47 182.84 442.47 175.5 442.47 157.5 449.13 148.17 449.13 140.84 445.8 136.17 452.47 132.84 465.8 132.84 481.13 128.84 498.47 128.84 517.13 132.84 524.47 136.17 535.13 142.84 546.47 155.84 546.47 162.84 550.47 169.17 550.47 185.5 547.8 201.5 539.13 212.84 512.47 216.17 479.13 208.84 463.13 198.84 446.47 182.84" />
    <polygon class="cls-1" points="395.8 255.5 389.8 260.17 381.13 260.17 373.8 260.17 367.8 255.5 363.8 248.17 363.8 242.17 369.8 232.84 379.8 226.17 386.47 224.17 389.8 220.17 393.8 216.17 393.8 208.84 400.47 200.17 403.13 196.17 403.13 181.5 403.13 175.5 403.13 165.5 403.13 156.17 408.47 148.84 413.8 143.5 418.47 135.5 431.8 135.5 437.8 140.17 433.8 146.17 431.13 160.17 433.13 169.17 435.13 182.84 442.47 198.84 442.47 206.84 442.47 212.84 446.47 221.5 452.47 226.17 459.13 232.84 465.13 241.5 465.13 251.5 460.47 258.17 451.13 264.84 442.47 264.84 436.47 262.17 427.8 258.17 418.47 249.5 417.13 236.84 414.47 241.5 411.13 252.17 401.8 256.17 395.8 255.5" />
    <polyline class="cls-1" points="260.47 216.17 263.13 227.5 269.13 238.84 278.47 247.5 286.47 253.5 289.8 258.84" />
    <polyline class="cls-1" points="363.8 226.17 355.13 233.5 341.8 240.84 327.8 244.84" />
    <path class="cls-2" d="M-57.33,93.33" transform="translate(530.47 165.5)" />
    <path class="cls-2" d="M-183.2,93.33" transform="translate(530.47 165.5)" />
    <polyline class="cls-1" points="520.47 304.17 511.13 294.84 503.13 290.17 496.47 284.84 484.47 278.84 478.47 268.17 473.13 258.84" />
    <polygon class="cls-1" points="405.8 304.17 414.47 298.17 425.13 298.17 430.47 301.17 427.8 309.5 425.13 316.84 418.13 316.84 408.47 316.84 405.8 311.5 405.8 304.17" />
    <polygon class="cls-1" points="439.8 320.84 430.47 320.84 425.13 316.84 430.47 301.17 436.47 301.17 442.47 307.5 439.8 320.84" />
    <polygon class="cls-1" points="452.47 316.84 447.13 320.84 439.8 320.84 442.47 307.5 448.47 307.5 452.47 316.84" />
    <polygon class="cls-1" points="452.47 324.17 447.13 320.84 452.47 316.84 461.13 316.84 461.13 324.17 452.47 324.17" />
    <polyline class="cls-1" points="468.47 327.5 473.13 320.5 468.47 311 461.13 294.17 457.8 271.5 457.8 264.84" />
    <polyline class="cls-1" points="405.8 311.5 401.8 316.84 389.8 316.84 386.47 307.5 386.47 296.17 396.13 296.17 405.8 304.17" />
    <polyline class="cls-1" points="386.47 314.17 380.47 316.84 374.47 316.84 374.47 307.5 380.47 298.17 386.47 296.17" />
    <polygon class="cls-1" points="363.8 320.84 374.47 316.84 374.47 307.5 369.13 304.17 363.8 311 363.8 320.84" />
    <polygon class="cls-1" points="350.47 320.84 355.13 320.84 363.8 320.84 363.8 311 355.13 311 347.27 316.84 350.47 320.84" />
    <polyline class="cls-1" points="337.13 320.84 333.8 311 345.8 298.17 355.13 284.84 360.47 274.5 365.8 264.84" />
    <polyline class="cls-1" points="353.23 248.22 347.27 258.84 335.8 271.5 331.13 276.17 321.13 281.5 317.28 286.08 310.47 294.17 305.13 304.17 310.47 294.17 321.13 281.5 331.13 276.17 339.13 268.17 347.27 258.84 355.13 244.84" />
    <polyline class="cls-1" points="408.47 316.84 405.8 324.17 407.13 334.17 411.13 334.17 422.47 334.17 425.13 330.84 425.13 316.84" />
    <polygon class="cls-1" points="399.8 334.17 391.13 334.17 386.47 327.5 386.47 320.5 389.8 316.84 401.8 316.84 407.13 320.5 405.8 330.84 407.13 334.17 399.8 334.17" />
    <polyline class="cls-1" points="425.13 320.5 428.76 319.56 430.47 320.84 435.13 325.5 436.47 331.84 432.47 338.17 425.13 338.17 422.47 334.17" />
    <polygon class="cls-1" points="442.47 335.5 444.8 330.84 444.8 324.17 439.8 320.84 433.8 322.17 433.8 324.17 435.56 327.5 436.47 331.84 433.8 334.17 436.47 338.17 442.47 335.5" />
    <polygon class="cls-1" points="386.47 334.17 387.87 329.5 386.47 327.5 386.47 320.5 384.13 316.84 377.13 319.56 374.47 322.17 374.47 327.5 376.8 332.17 379.13 334.17 386.47 334.17" />
    <polygon class="cls-1" points="372.8 334.17 376.8 332.17 374.47 327.5 374.47 322.17 372.8 319.56 365.8 320.84 363.8 325.5 365.8 334.17 372.8 334.17" />
    <polygon class="cls-1" points="361.47 329.5 363.8 328.86 363.8 325.5 361.47 320.84 355.13 320.84 355.13 325.5 355.53 329.5 359.47 329.5 361.47 329.5" />
    <polygon class="cls-1" points="449.47 331.17 452.47 327.5 452.47 324.17 447.13 320.84 442.47 322.62 444.8 324.17 444.8 330.84 449.47 331.17" />
    <polyline class="cls-1" points="403.8 298.17 402.13 294.5 402.13 290.5 405.8 287.17 409.13 283.84 410.47 279.17 412.47 271.17 414.47 266.5 414.47 260.84" />
    <polyline class="cls-1" points="386.47 292.84 386.47 288.5 386.47 286.17 387.87 281.5 392.8 277.17 399.47 268.17 404.47 260.84 405.8 257.17" />
    <polyline class="cls-1" points="430.47 296.17 429.47 291.17 429.47 287.5 427.13 281.5 422.47 271.17 420.13 264.84 418.13 258.84" />
    <polyline class="cls-1" points="442.47 301.17 444.8 295.17 442.47 290.84 439.3 283.5 436.47 277.5 430.47 267.5" />
    <path class="cls-1" d="M-157,132.67l-3.17-3.67v-6l3.17-4.17s7-10.83,7-9.83,4.33-4,4.33-4l1.67-5.67" transform="translate(530.47 165.5)" />
    <polyline class="cls-1" points="362.13 306.5 359.47 304.17 359.47 298.17 362.13 292.84 365.8 284.34 370.3 275 376.8 270.17 380.47 264.84" />
    <polyline class="cls-1" points="455.47 311 455.47 305.5 454.13 298.17 451.13 292.84 442.47 275 439.8 270.84 437.63 264.84" />
    <polyline class="cls-1" points="463.13 314.17 465.13 311 464.13 306.5 459.47 296.17 452.47 285.67 449.8 277.5 449.8 271.17" />
    <polyline class="cls-1" points="345.8 314.17 341.8 312.5 340.13 307.5 342.97 304.17 349.8 298.17 353.47 292.84 359.47 284.34 363.8 277.5 365.8 271.17" />
    <polygon class="cls-1" points="402.13 338.17 400.13 340.5 401.13 343.17 404.13 344.84 408.3 343.17 409.8 341.5 408.3 338.17 404.97 338.17 402.13 338.17" />
    <polyline class="cls-1" points="387.87 335.84 386.47 341.5 387.17 344.84 387.87 346.84 391.13 351.5 394.47 357.5 396.13 361.5 396.13 366.5" />
    <polyline class="cls-1" points="425.13 341.5 424.3 344.84 422.47 349.17 422.47 353.17 421.13 359.17 421.13 363.17 422.47 366.5" />
    <polyline class="cls-1" points="433.8 340.17 433.8 344.84 432.47 348.84 430.47 354 430.47 360.5 432.13 365.17 433.8 368.5 437.63 373.84" />
    <polyline class="cls-1" points="446.55 334.17 446.55 340.17 444.8 344.84 442.47 351.17 442.47 357 446.13 362.84 449.8 369.84 449.8 377.17" />
    <polyline class="cls-1" points="455.47 326.86 457.8 331.17 457.8 335.84 457.47 340.17 457.8 344.84 461.13 352.84 465.13 357 470.13 358.84 476.47 362.17 479.47 366.5 481.47 370.5" />
    <polyline class="cls-1" points="352.97 325.17 347.27 329.5 347.27 335.84 349.8 340.17 352.97 347.5 352.97 354 349.8 357 343.8 360.17 340.13 362.17 335.8 366.5 332.13 370.5" />
    <polyline class="cls-1" points="365.8 338.17 363.8 344.84 363.8 347.84 364.8 352.5 367.13 354 370.3 355.67 374.47 358.84 374.47 363.17 372.8 368.5 370.3 373.84 369.13 375.84" />
    <polyline class="cls-1" points="332.13 316.84 327.8 320.84 326.13 325.17 316.13 326.86 305.13 326.86 301.13 319.56 297.47 312.5 289.8 306.5 279.8 298.17 275.13 294.5 271.47 284.34 271.47 279.5 265.47 267.5 260.47 260.84 253.13 252.84 247.47 241.84 244.47 231.84 242.13 226.17" />
    <polyline class="cls-1" points="477.97 320.84 481.47 324.17 487.97 325.17 491.47 327.5 493.97 331.17 504.47 329.5 511.47 325.5 520.47 324.17 526.97 320.84 533.97 319.56 539.47 306.5 544.97 296.17 550.47 292.84 559.47 287.92 562.47 279.5 564.47 271.17 569.97 258.84 572.47 241.5 574.97 232.5 574.97 226.17" />
    <polyline class="cls-1" points="515.47 341.5 518.47 335.84 520.47 331.17 520.47 324.17 526.97 320.84 533.97 319.56 540.47 325.17 544.97 334.17 547.47 344.84 552.97 351.17 555.47 357 552.97 366.5 545.97 377.17 539.97 384 535.47 394.5 526.47 408 517.47 415 509.47 423.5 496.8 432.5 491.47 437 483.97 440 473.13 445.5 461.13 445.5 452.47 443.5 442.47 443.5 434.05 443.5 415.47 443.5 400.13 443.5 387.87 443.5 378.38 443.5 363.8 443.5 355.13 443.5 345.8 441 340.13 438.5 333.8 434.5 323.47 430.84 313.8 426.17 305.13 422.17 295.13 415.5 283.13 403.5 275.13 396.84 265.13 373.84 260.47 361.5 264.47 338.17 275.13 331.17 287.13 324.17 289.8 314.17 289.8 306.5" />
    <path class="cls-1" d="M-26,164" transform="translate(530.47 165.5)" />
    <polyline class="cls-1" points="504.47 329.5 508.47 334.17 508.47 338.17 504.47 341.5 506.47 347.84 511.47 348.68 520.47 351.17 526.47 357 526.47 364.5" />
    <polyline class="cls-1" points="484.97 325.17 481.47 331.17 481.47 338.17 484.97 341.5 496.8 348.68 499.97 357 504.47 370.5 504.47 382.53" />
    <polyline class="cls-1" points="332.13 327.5 332.13 334.17 327.8 341.5 323.47 351.17 323.47 357 323.47 370.5 313.13 382.53 309.8 390.17" />
    <polyline class="cls-1" points="315.13 334.17 309.8 341.5 309.8 351.17 305.13 358.84 293.13 366.5 287.13 373.84" />
    <polyline class="cls-1" points="407.97 438.17 400.13 432.84 396.13 426.17 391.3 415.5 391.3 404.17 396.13 392.84 402.13 382.53 405.8 373.84 407.13 364.5 407.13 355.67" />
    <polyline class="cls-1" points="423.13 370.5 421.13 377.17 418.13 386.84 418.13 396.92 421.13 408.17 424.3 416.17 429.47 424.17" />
    <polyline class="cls-1" points="433.8 377.17 430.47 385.5 430.47 396.92 433.8 403.5 439.8 414.84 442.47 424.17 442.47 434.17" />
    <polyline class="cls-1" points="439.8 382.53 439.8 390.17 442.47 396.92 446.55 405.67" />
    <polyline class="cls-1" points="452.47 396.92 449.8 387.5 452.47 396.92 455.47 405.67 461.13 412.17 461.13 421.5 457.8 434.17" />
    <polyline class="cls-1" points="461.13 394.1 465.13 400.84 468.47 405.67 473.13 410.84 473.13 417.5 468.47 424.17 467.13 429.5" />
    <polyline class="cls-1" points="477.97 402.84 481.47 410.84 481.47 416.17 479.72 424.17 473.13 434.17 468.47 438.17" />
    <polyline class="cls-1" points="488.47 410.84 488.47 417.5 485.13 424.17 477.97 434.17" />
    <polyline class="cls-1" points="387.87 377.17 383.8 387.5 380.47 394.1 374.47 402.84 372.47 410.84 372.47 415.5 374.47 420.5 376.8 426.84 380.17 434.17 381.17 438.17" />
    <polyline class="cls-1" points="374.47 382.53 369.13 394.1 363.8 402.84 359.47 411.8 359.47 417.5 359.47 424.17 363.8 434.17 365.8 438.17" />
    <polyline class="cls-1" points="359.47 394.1 355.13 402.84 349.8 410.35 345.8 416.84 345.8 422.5 345.8 429.5 347.27 434.17" />
    <polyline class="cls-1" points="345.8 402.84 342.55 405.67 337.13 411.8 333.8 420.5 332.13 424.17" />
    <polyline class="cls-1" points="563.8 169.17 561.13 188.84 557.8 198.84 561.13 210.17 561.13 223.5 555.47 237.5 550.47 244.84" />
    <polyline class="cls-1" points="543.13 257.17 538.47 260.84 535.8 267.5 535.8 275 539.47 281.5 543.13 287.92" />
    <polyline class="cls-1" points="295.13 264.84 301.13 271.17 301.13 276.52 298.13 287.92 295.13 292.84" />
    <polyline class="cls-1" points="473.13 237.5 477.97 240.84 483.22 244.84 492.97 249.5 501.8 252.17 520.47 252.17 526.47 248.84" />
    <polyline class="cls-1" points="309.8 244.84 298.13 244.84 289.8 237.5 282.47 226.17 279.8 216.17" />
    <polyline class="cls-1" points="256.47 152.84 260.47 143.5 263.8 135.5 266.47 128.84 269.8 118.84 269.8 108.17 269.8 98.17 263.13 88.84" />
    <polyline class="cls-1" points="283.8 125.5 279.8 116.84 281.8 110.17 289.8 102.17 294.8 93.5 295.13 83.5 294.8 70.17 289.8 59.5" />
    <polyline class="cls-1" points="330.13 118.17 323.47 112.84 323.47 104.84 327.8 95.5 333.8 85.5 338.97 75.5 342.55 59.5 342.55 46.17 340.13 32.17 338.97 21.5" />
    <polyline class="cls-1" points="557.13 147.5 555.47 135.5 555.47 125.5 555.47 111.5 557.13 95.5 557.13 88.84" />
    <polyline class="cls-1" points="526.47 125.5 535.8 120.84 539.47 111.5 539.47 100.17 535.8 84.84 535.8 69.84 539.47 59.5" />
    <polyline class="cls-1" points="496.47 120.84 504.47 112.17 504.47 101.5 500.47 92.5 492.97 88.84 485.8 69.84 481.47 51.5 481.47 32.84 481.47 21.5 481.47 11.5" />
    <polyline class="cls-1" points="409.8 0.17 407.13 7.5 404.97 15.5 402.13 26.17 402.13 36.84 402.13 48.17 404.97 55.5 408.3 66.17 414.47 76.84 418.13 88.84 421.13 98.84" />
    <polyline class="cls-1" points="347.27 244.84 342.55 252.17 338.97 258.84 330.13 264.84 320.97 271.17 315.13 276.52 309.8 285.67" />
    <polyline class="cls-1" points="481.47 260.84 488.47 271.17 492.97 275 504.47 284.34 515.47 287.92 526.47 296.17" />
    <polygon class="cls-1" points="461.13 641.5 461.13 634.17 461.13 622.17 457.8 615.5 457.47 608.17 461.13 602.17 465.13 596.84 465.13 590.17 467.13 582.17 468.47 574.84 465.13 570.84 454.13 575.5 446.55 584.17 434.05 590.84 430.47 596.84 415.47 593.5 404.97 594.17 396.8 587.5 387.87 581.5 374.47 576.84 365.8 578.17 363.8 591.5 366.97 606.17 369.13 619.5 363.8 630.84 363.8 638.17 372.47 644.84 391.3 651.5 404.97 660.84 416.13 660.84 425.13 660.84 434.05 651.5 439.8 646.84 452.47 642.84 461.13 641.5" />
    <polyline class="cls-1" points="421.13 647.5 409.8 650.84 400.13 647.5 396.13 640.17 396.13 632.17 400.13 622.84 402.13 615.84 400.13 604.17 396.8 594.84" />
    <polyline class="cls-1" points="439.8 630.84 439.8 622.84 436.47 615.84 436.47 608.84 439.8 602.84" />
    <polygon class="cls-1" points="434.05 590.84 423.8 590.84 405.8 588.17 396.8 587.5 387.87 581.5 374.47 576.84 366.97 570.84 366.97 564.84 370.3 561.5 372.47 548.17 366.97 526.84 359.47 516.17 359.47 504.84 366.97 500.17 381.17 500.17 400.13 507.5 404.97 514.84 415.47 513.5 429.47 511.5 438.13 504.17 449.8 500.17 461.13 495.5 473.13 503.5 468.47 514.84 468.47 523.5 465.47 534.84 461.13 548.17 461.13 556.17 467.13 561.5 468.47 568.17 465.13 570.84 454.13 575.5 449.8 580.46 434.05 590.84" />
    <polyline class="cls-1" points="412.47 556.84 415.47 550.17 413.97 543.17 409.8 535.5 405.8 528.84 404.97 519.5" />
    <polyline class="cls-1" points="444.8 578.17 444.8 570.84 439.8 556.84 436.47 552.17 433.8 543.17 433.8 526.84" />
    <polyline class="cls-1" points="391.3 575.5 391.3 566.84 393.8 556.84 396.8 552.5 396.8 543.17 391.3 535.5 381.17 519.5 381.17 511.5" />
    <polyline class="cls-1" points="410.22 695.5 408.63 686.84 404.97 680.84 396.8 673.5 391.3 664.84 388.98 660.84 386.47 653.5 381.17 647.92 369.13 647.92 363.8 647.92 355.13 641.5 352.97 634.84 352.63 622.84 352.97 608.84 355.13 602.84 359.47 594.84 359.47 590.84 359.47 582.84 363.8 570.84 363.8 561.5 359.47 552.5 355.13 543.5 355.13 526.84 352.97 514.84 352.97 498.17 359.47 490.17 363.8 482.17 366.97 470.17 363.8 458.84 363.8 454.17" />
    <polyline class="cls-1" points="352.97 684.84 349.8 677.5 345.8 666.17 342.55 657.5 338.97 647.5 332.13 638.17" />
    <polyline class="cls-1" points="332.13 630.84 338.97 625.5 342.55 616.84 342.55 608.84 342.55 594.84" />
    <polyline class="cls-1" points="421.13 695.5 421.13 684.84 425.13 676.17 433.8 669.5 439.8 661.5 444.8 652.17 446.13 644.84 452.47 642.84 461.13 645.5 468.47 645.5 473.13 638.17 474.97 626.84 474.97 615.84 473.13 608.84 473.13 594.84 477.97 584.84 473.13 578.17 473.13 570.84 477.97 561.5 483.22 556.84 487.55 543.5 483.22 519.5 483.22 502.17 477.97 485.5 474.97 474.84 481.47 463.5 477.97 451.5" />
    <polyline class="cls-1" points="477.97 673.5 477.97 666.17 477.97 656.17 483.22 644.84 492.97 634.17 497.13 625.5 492.97 612.84 492.97 602.84 496.22 583.58 497.13 578.17 497.13 566.84" />
    <path class="cls-1" d="M-166.67,316.67" transform="translate(530.47 165.5)" />
    <polyline class="cls-1" points="342.55 566.84 345.8 556.84 345.8 549.5 342.55 538.17 337.34 526.84 332.13 508.84 332.13 495.5 332.13 478.84 342.55 470.84 345.8 461.5 342.55 451.5" />
    <polyline class="cls-1" points="497.13 556.84 497.13 546.17 492.97 534.84 492.97 519.5 495.05 505.5 497.13 491.5 504.47 482.17 510.47 471.5 510.47 460.84 504.47 451.5 504.47 442.17" />
    <polyline class="cls-1" points="268.91 382.53 265.13 387.5 265.13 394.1 267.02 402.84 273.8 414.14 278.47 424.17 282.47 438.17 282.47 442.17 282.47 451.5 282.47 463.5 287.13 476.17 292.47 486.17 292.47 499.5 297.13 519.5 301.13 535.5 305.13 556.84 309.8 570.84 315.13 583.5 325.13 594.84 332.13 602.84 332.13 610.17" />
    <polyline class="cls-1" points="552.97 366.5 552.97 370.5 552.97 377.17 549.8 387.5 544.47 402.84 541.13 420.5 530.47 438.17 526.47 451.5 523.8 465.5 523.8 482.17 526.47 496.35 526.47 509.17 526.47 526.84 523.8 547.5 515.47 566.84 515.47 581.5 515.47 594.84 515.47 606.17" />
    <polygon class="cls-1" points="325.13 178.17 323.47 176.5 320.97 172.5 319.8 169.17 319.8 165.5 320.97 161.84 328.53 160.17 337.8 158.5 342.55 158.5 349.8 160.84 351.13 163.84 351.13 169.17 349.8 172.5 347.27 176.84 345.8 178.17 337.13 178.17 325.13 178.17" />
    <polygon class="cls-1" points="477.97 180.84 475.13 178.17 473.13 173.84 473.13 168.34 475.55 165.5 484.8 164.17 496.47 165.5 504.47 168.34 504.47 171.17 504.47 176.17 503.13 180.84 499.8 183.5 488.8 183.5 479.47 183.5 477.97 180.84" />
    <polyline class="cls-1" points="335.47 1292.5 345.47 1285.5 359.47 1277.5 371.47 1271.5 379.47 1264.5 392.47 1255.5 399.47 1248.5 414.47 1242.5 421.47 1242.5 430.47 1242.5 419.47 1253.5 411.47 1258.5 405.47 1267.5 399.47 1275.5 395.47 1281.5 386.97 1291.5 379.47 1297 369.47 1302 357.47 1306.5 354.97 1306.5" />
    <polyline class="cls-1" points="440.47 1254.5 440.47 1261.5 440.47 1273.5 435.47 1287.5 430.47 1300.5 422.47 1310.5 409.47 1320.5 398.47 1328.5" />
    <polyline class="cls-1" points="667.51 1125.7 662.73 1130.29 660.01 1135.5 653.47 1141 640.97 1151.5 630.47 1160.5 612.47 1172 598.47 1179 577.47 1187.5 564.47 1192.07 548.97 1200 535.47 1206.5 516.47 1215.5 498.47 1223.5 480.47 1228.5 461.47 1234.5 448.47 1242.5 430.47 1254.5 419.47 1264.5 411.47 1273.5 406.47 1279.5 395.47 1291.5 385.47 1299.5 371.97 1306.5 362.97 1310" />
    <polyline class="cls-1" points="430.47 1242.5 445.47 1232.5 462.47 1225.5 481.47 1218.5 502.47 1212.5 519.47 1206.5 541.47 1196.5 569.09 1185 595.47 1174.06 619.47 1162.5 636.97 1151.5 656.47 1135.5 658.97 1130.95 662.73 1125.7 664.88 1124.77" />
    <polyline class="cls-1" points="398.47 1333.5 419.47 1321.5 430.47 1309.5 440.47 1303.5 444.47 1292.5 461.47 1283.5 474.47 1279.5 485.97 1283.5 473.97 1292.5 462.47 1306.5 451.47 1318.5 440.47 1323.5 430.47 1331.25 425.47 1334 416.97 1341.5 413.47 1345" />
    <polyline class="cls-1" points="503.47 1299.5 507.47 1306.5 505.47 1317.5 503.47 1328.5 496.47 1338.5 485.97 1343.5 470.97 1350.5 454.47 1358.5 440.47 1368.5" />
    <polyline class="cls-1" points="699.76 1130.29 696.97 1135.5 689.35 1145.93 678.47 1155 667.51 1160.78 660.01 1164.5 650.97 1171.5 636.97 1182 627.47 1190.5 619.47 1198 609.47 1206.5 603.47 1212.5 576.47 1237 556.47 1254.5 541.47 1271.5 524.47 1283.5 507.47 1291.5 496.47 1306.5 485.97 1314.5 466.47 1322.5 446.47 1328.5 437.47 1333.5 430.47 1339.5 421.97 1345 419.47 1348" />
    <polyline class="cls-1" points="485.97 1283.5 497.47 1273.5 507.47 1267.5 520.47 1261.5 535.47 1254.5 563.47 1234.5 584.47 1219.5 619.47 1190.5 624.97 1186.5 635.47 1179 645.47 1171.5 651.47 1166.5 660.01 1161.69 667.51 1157.5 678.47 1152 685.47 1145.93 692.47 1135.5 694.47 1130.95" />
    <polyline class="cls-1" points="736.18 1145.93 730.47 1148.93 722.47 1152.5 715.97 1158 710.47 1165.5 702.47 1176.7 696.97 1184.5 692.47 1189 685.47 1196.5 678.47 1201 667.51 1207.5 660.01 1212 648.47 1217 643.02 1219.5 632.47 1229.5 619.47 1243 597.47 1267.5 571.47 1291.5 552.72 1303.5 541.47 1312.5 524.97 1324.5 518.47 1334 507.47 1350.5 492.47 1368.5 478.47 1377.5 473.97 1382.5 468.97 1386.5 461.97 1391 458.97 1394.5" />
    <polyline class="cls-1" points="737.18 1148.93 733.02 1151.5 720.13 1157.5 710.47 1168.8 706.97 1176.7 697.47 1189 689.35 1196.5 682.97 1202 673.47 1207.5 660.01 1214.5 650.97 1219.5 645.47 1222.5 637.47 1229.5 613.47 1254.5 603.47 1267.5 588.47 1292.5 573.47 1312.5 559.47 1328.5 552.72 1334 541.47 1345 529.47 1351.5 509.97 1360.5 500.47 1368.5 485.97 1377.5 478.47 1383.5 472.97 1389 466.47 1393 461.97 1397.5" />
    <polyline class="cls-1" points="541.47 1345 552.72 1353.5 552.72 1361.5 555.47 1377.5 552.72 1384.5 531.47 1397.5 524.97 1397.5" />
    <line class="cls-1" x1="518.47" y1="1334" x2="503.47" y2="1328.5" />
    <polyline class="cls-1" points="592.47 1397.5 597.47 1379.5 597.47 1371.25 603.47 1361.5 611.47 1345 619.47 1328.5 632.47 1306.5 650.47 1283.5 656.97 1276.5 663.47 1270.5 668.97 1262.5 680.47 1251 688.97 1242.5 699.76 1229.5 705.76 1219.5 710.47 1206.5 712.97 1203 715.97 1199 718.47 1189 723.97 1183 729.47 1180 737.47 1176.5 742.56 1174.06" />
    <polyline class="cls-1" points="567.47 1397.5 567.47 1389.5 567.47 1382.5 574.47 1371.25 580.47 1361.5 585.47 1356.5 598.47 1340.5 609.47 1331.25 621.47 1313.5 637.47 1291.5 658.47 1267.5 668.97 1254.5 682.57 1242.5 699.76 1219.5 704.84 1212 710.47 1202.5 713.17 1192.33 720.97 1181.5 729.47 1176 739.97 1171.5 741.51 1168.8" />
    <polyline class="cls-1" points="603.47 1361.5 612.97 1368.5 619.47 1377.5 619.47 1386.5 621.47 1397.5" />
    <polyline class="cls-1" points="585.47 1356.5 567.47 1356.5 555.47 1368.5 552.72 1397.5" />
    <polyline class="cls-1" points="552.72 1353.5 518.47 1371.25 496.47 1386.5" />
    <polyline class="cls-1" points="505.47 1317.5 478.47 1332.5 456.47 1340.5 440.47 1345" />
    <polyline class="cls-1" points="619.47 1368.5 637.47 1353.5 650.47 1333.5 668.47 1306.5 695.47 1283.5 718.47 1267.5 742.56 1243 757.56 1229.5 772.56 1212.5 780.06 1196.5" />
    <polygon class="cls-1" points="658.47 1122.5 645.47 1116.5 645.47 1106.5 651.97 1099.5 663.47 1093.5 693.47 1086.5 727.47 1079.5 761.47 1068.5 784.47 1054.5 824.47 1028.5 841.47 1016.5 882.47 982.5 914.47 957.5 942.47 935.5 961.47 920.5 982.47 899.5 1004.47 881.5 1019.47 860.5 1026.47 841.5 1038.47 825.5 1064.47 819.5 1077.47 819.5 1120.47 824.5 1135.47 845.5 1155.47 862.5 1174.47 869.5 1204.47 877.5 1219.47 889.5 1226.47 905.5 1228.97 915.5 1228.97 919.5 1230.47 929.17 1230.47 937.17 1228.47 945.5 1223.47 952.84 1212.13 964.5 1205.13 971 1197.13 980.84 1191.13 984.84 1167.04 980.57 1135.54 977.57 1099.54 979.07 1038.05 1004.57 997.55 1027.07 972.05 1046.57 931.55 1073.57 894.05 1097.57 859.56 1115.57 843.06 1129.07 829.56 1151.57 823.56 1171.06 813.06 1190.5 796.56 1196.5 771.06 1196.5 742.56 1174.06 738.06 1151.57 733.56 1138.07 709.56 1129.07 685.57 1132.07 658.47 1122.5" />
    <polyline class="cls-1" points="1168.54 934.08 1150.54 928.08 1142.47 917.58 1120.54 917.58 1089.05 934.08 1065.05 950.58 1050.05 965.57 996.05 992.57 967.55 1008 937.97 1027.07" />
    <polyline class="cls-1" points="1081.55 833.58 1053.25 838.08 1038.05 850.08 1027.55 862.08" />
    <polyline class="cls-1" points="1174.47 869.5 1188.04 854.58 1188.04 841.08 1174.47 826.08 1158.04 819.5 1131.04 812.58 1102.54 787.08 1066.55 757.09 1027.55 730.09 994.55 706.09" />
    <polyline class="cls-1" points="1004.47 881.5 994.55 869.5 994.55 847.83 1004.47 833.58 1027.55 819.5 1027.55 805.08 1018.55 787.8 1003.55 776.58" />
    <polyline class="cls-1" points="1111.54 808.08 1081.55 796.08 1054.55 769.08 1027.55 754.09" />
    <polyline class="cls-1" points="910.55 763.09 937.97 781.08 960.05 787.8 981.05 802.08 1011.05 819.5 1020.49 823.81" />
    <polyline class="cls-1" points="715.97 1114 715.97 1107 720.97 1099 737.47 1089.5 755.97 1083 785.97 1070.5 806.97 1059 832.97 1044.5 846.47 1035" />
    <polyline class="cls-1" points="720.13 1187.88 723.3 1187.88 730.13 1186.84 734.47 1184.67 736.63 1182.5 741.51 1179.34 744.3 1178.5 745.91 1176.7" />
    <polyline class="cls-1" points="716.38 1187.88 711.8 1187.88 703.47 1185.84 699.76 1186.03" />
    <polyline class="cls-1" points="694.47 1185.84 686.47 1185.84 677.13 1183.63 669.8 1176.7 667.51 1168.8 666.12 1161.47" />
    <polyline class="cls-1" points="664.88 1158.98 664.88 1154.84 667.51 1145.93 671.47 1138.84 677.47 1132.84 682.41 1130.95" />
    <polyline class="cls-1" points="419.47 1397.5 419.47 1392.5 411.47 1377.5 406.47 1371.25 392.47 1368.5 369.47 1345 354.47 1334 335.47 1317.5 320.47 1306.5 306.47 1299.5 295.47 1292.5 280.97 1288 261.47 1283.5 240.97 1279.5 206.97 1274.5 187.97 1267 170.97 1259.5 162.47 1254.5 151.8 1247.5 118.47 1225.5 104.47 1209.5 101.53 1203.2" />
    <polyline class="cls-1" points="317.47 1291.5 324.97 1291.5 331.47 1291.5 342.47 1296.5 350.97 1303.5 362.97 1312.25 373.97 1320 390.47 1328.5 401.47 1337 409.97 1340.5 411.97 1348 409.97 1356.5 404.97 1362.5 398.47 1361 393.97 1356.5 382.97 1348 371.97 1339.5 359.97 1331.25 351.47 1324 342.47 1317.5 335.47 1312.25 331.97 1306.5 323.97 1299.5 317.47 1295.5 310.97 1291.5 301.97 1286 286.47 1279.5 266.47 1279.5 251.47 1277 234.47 1274.5 208.47 1270.22 189.47 1263.5 167.97 1254.5 159.8 1248.17 152.47 1242.5 141.8 1236.17 129.8 1227.5 119.8 1220.84 108.47 1208.17 105.13 1203.2 105.13 1199.53" />
    <polyline class="cls-1" points="404.97 1362.5 411.97 1362.5 419.47 1368.5 423.97 1377 426.97 1384 430.47 1391.5 430.47 1397.5" />
    <polyline class="cls-1" points="411.97 1353.5 417.72 1351 424.47 1353.5 427.47 1357.5 430.47 1365 436.47 1371.25 445.47 1383 448.47 1386.5 454.47 1391 456.97 1391 456.97 1397.5" />
    <polyline class="cls-1" points="392.47 1368.5 388.47 1371.25 382.97 1380 382.97 1384.5 379.47 1394.5 377.47 1397.5" />
    <polyline class="cls-1" points="288.97 1317.5 286.47 1323.5 286.47 1331.25 286.47 1340.5 288.97 1348 303.97 1356.5 316.47 1360 326.97 1368.5 335.47 1374 346.47 1380.5 355.97 1386.5 362.97 1392 376.47 1392 382.97 1384.5" />
    <polyline class="cls-1" points="0.47 1312.25 12.1 1306.5 12.1 1274.5 18.1 1249.06 33.1 1231.06 55.6 1225.06 85.59 1217.85 97.59 1207.23 108.09 1196.5 115.59 1187.88 100.59 1176.7 91.59 1161.47 73.59 1158.98 49.6 1158.98 27.1 1144.97 18.1 1125.7 9.1 1103.57 0.47 1081.07" />
    <polyline class="cls-1" points="92.64 1211.61 101.53 1225.5 109.13 1234.84 130.47 1258.17 145.8 1274.5 173.8 1299.5 191.13 1312.25 215.8 1328.5 232.47 1334 247.13 1338.84 260.5 1345 274.47 1354.75 286.47 1368.5 297.8 1380 306.47 1388.17 309.8 1397.5" />
    <polyline class="cls-1" points="289.13 1397.5 286.47 1392 281.8 1383 271.13 1374.25 263.13 1368.5 245.8 1358.17 229.13 1351 209.8 1338.17 201.22 1328.5 189.13 1317.5 180.47 1310 169.13 1300.35 141.8 1274.5 131.8 1266.84 121.13 1254.5 105.13 1235.5 92.64 1220.84 89.07 1214.77" />
    <polyline class="cls-1" points="217.13 1397.5 205.8 1383 197.8 1374.25 173.13 1354.75 148.47 1334 128.47 1304.56 119.8 1284.84 111.8 1266.84 101.53 1254.5 82.47 1242.5 71.8 1230.17 67.79 1222.13" />
    <polyline class="cls-1" points="207.8 1397.5 194.47 1383 183.13 1374.25 165.8 1354.75 157.8 1348 142.46 1334 131.13 1317.5 123.13 1304.56 115.59 1285.5 108.1 1273.42 101.53 1262.84 95.8 1254.5 83.8 1248.17 67.79 1232.84 62.29 1223.45" />
    <polyline class="cls-1" points="171.13 1397.5 165.13 1392 153.13 1380 142.46 1368.5 123.8 1351 101.53 1317.5 84.47 1285.5 73.13 1274.5 58.03 1258.84 39.13 1239.15 35.84 1230.33" />
    <polyline class="cls-1" points="151.13 1397.5 142.46 1387.5 131.8 1374.25 119.8 1359.5 109.8 1345 96.47 1321.5 86.47 1304.56 79.13 1288.17 62.29 1269.5 44.47 1254.5 33.13 1242.5 33.1 1231.06" />
    <polyline class="cls-1" points="108.09 1196.5 115.59 1196.66 125.13 1203.2 135.05 1208.17 139.8 1217.85 142.46 1230.33 141.8 1236.17" />
    <polyline class="cls-1" points="139.14 1239.15 135.05 1246.84 126.54 1253.88" />
    <polyline class="cls-1" points="123.52 1257.26 118.47 1261.5 111.8 1266.84" />
    <polyline class="cls-1" points="106.3 1270.53 98.47 1274.5 92.64 1277.17 85.47 1278.5 79.13 1278.5 75.84 1277.13" />
    <polyline class="cls-1" points="67.79 1275.6 60.8 1274.52 54.47 1275.06 44.8 1274.52 35.84 1268.84 24.47 1259.84 22.13 1249.84" />
</svg>