
<svg id="Layer_3" data-name="Layer 3" xmlns="http://www.w3.org/2000/svg" viewBox="0 0 281.71 340.86">
    <defs>
        <style>
        .cls-1,
        .cls-2 {
            fill: none;
            stroke-miterlimit: 10;
        }

        .cls-1,
        .cls-2 {
            stroke: #2cffd6;
            stroke-width: 1px;
            stroke-dasharray:100;
            stroke-dashoffset: 0;
            animation: testmove 6s infinite;
            
        }

        @keyframes testmove {

            0% {
            stroke-dashoffset: 100;
            stroke: #88d8b0;
            }
            25% {
            stroke-dashoffset: 50;
            stroke: #ff6f69;
            }
            50% {
            stroke-dashoffset: 100;
            stroke: #88d8b0;
            }
            51% {
            stroke-dashoffset: 100;
            stroke: #88d8b0;
            }
            75% {
            stroke-dashoffset: 50;
            stroke: #ff6f69;
            }
            90%{
            stroke-dashoffset: 0;
            stroke: #ffeead;
            }
            100%{
            stroke-dashoffset: 100;
            stroke: #88d8b0;
            }
        }
</style>
    </defs>

    <title>testsvg</title>
    <polyline class="cls-1" points="61.13 131.2 59.2 131.74 58.37 132.65 57.19 133.86 56.16 135 55.71 136.28 55.71 138.1 55.71 139.93 55.71 141.52 56.32 144.17 57.19 146.37 58.42 149.86 59.05 152.25 60.34 154.94 62.31 158.58 63.52 160.7 64.51 162.37 66.55 164.87 68.45 167.3 70.42 169.88 72.7 172.15 75.28 174.28 76.56 175.49 77.78 176.32 80.66 178.15 82.71 178.98 84.22 179.66 87.18 180.23 90.29 180.57 93.08 180.57 95.67 180.57 98.18 180.57 100.75 179.74 102.5 179.21 105.15 178.68 107.5 177.77 109.86 176.86 110.99 176.48 112.43 175.41 113.42 174.58 114.86 172.76 116.22 171.09 116.91 169.8 118.58 167.98 120.24 166.01 121.23 164.65 122.52 162.37 123.5 160.02 124.72 157.44 125.86 154.56 126.41 152.66 127.3 149.56 127.83 147.05 128.36 143.94 128.36 141.14 128.36 139.55 128.36 137.04 128.97 135.83 128.97 134.31 128.97 133.4 128.97 132.11 128.06 131.2 127.37 130.22" />
    <polyline class="cls-1" points="61.17 130.22 60.03 130.22 59.05 130.82 57.83 131.43 57.19 131.81 56.39 132.19 55.79 132.72 54.57 132.72 53.44 133.4 52.68 133.4 51.31 133.4 50.25 133.4 49.19 133.86 47.6 133.4 46.53 133.4 45.7 133.4 41.45 132.87 37.21 132.8 32.96 133.4 30.16 134.39 28.11 135.6 27.2 136.74 27.2 137.88 26.14 137.88 24.62 137.88 22.27 137.35 21.05 136.82 19.46 136.44 17.95 136.66 16.13 138.41 14.23 139.39 12.11 139.39 7.94 139.85 4.07 139.85 1.49 139.85 0.96 140.61" />
    <polyline class="cls-1" points="57 95.18 53.06 97.91 49.27 97.91 45.93 95.18 45.93 94.43 45.32 93.52 44.94 91.24 45.25 89.04 44.94 88.21 44.34 85.02 44.34 82.06 44.34 80.09 44.94 76.23 45.93 73.88 46.02 73.52 46.53 71.68 47.07 70.69 47.98 68.79 49.34 66.59 50.33 63.56 52.22 60.53 55.33 57.72 56.16 57.04 56.62 55.37 57 53.93 57 52.57 57.3 51.96 57.83 50.67 57.83 49.68 58.59 48.62 58.59 47.41 58.97 46.27 60.87 42.18 62.76 39.45 64.89 37.02 67.39 34.37 70.12 31.94 73.45 29.29 76.03 27.54 78.23 26.33 81.04 25.11 83.84 24.36 85.82 23.67 87.79 23.22 90.21 22.84 92.87 22.84 100.83 22.84 104.7 23.52 110.16 24.96 113.34 26.56 117.51 29.51 121.61 33.53 124.42 36.64 126.54 39.67 129.57 45.29 129.57 47.94 129.19 49.3 129.57 51.35 130.33 52.87 130.78 54.84 131.24 56.89 131.24 57.87 131.24 59.62 132.3 62.27 132.3 65 131.77 66.82 131.92 68.49 132.3 69.55 131.69 71.22 131.47 72.43 131.69 74.25 131.92 74.78 134.27 72.06 134.8 71.68 136.02 70.31 136.02 68.34 136.47 64.93 137.16 64.47 137.99 65.76 138.29 69.1 140.41 73.72 141.55 76.38 142.01 78.05 142.46 79.64 142.46 84.8 142.08 86.84 141.48 88.81 141.32 90.41 141.17 90.86 141.32 92 141.78 92.76 141.55 94.81 140.34 96.55 139.05 97.91 136.47 98.44 133.82 98.07 132.15 97.08 131.01 96.09 130.1 94.88 129.65 93.74" />
    <polyline class="cls-1" points="46.02 73.52 45.4 72.51 45.02 71.3 45.02 68.34 45.02 67.66 45.02 65.76 45.4 63.41 45.85 61.97 46.23 59.54 46.76 56.89 47.22 53.78 47.9 49.3 48.28 45.44 48.28 43.47 48.89 40.43 49.57 37.17 50.78 33 52.3 29.66 53.89 26.63 55.48 23.67 57.76 20.94 59.35 19.2 60.87 17.76 63.37 15.56 65.42 13.97 67.24 12.68 69.13 11.39 70.88 10.18 72.85 8.96 73.91 8.13 75.81 6.99 77.63 5.93 79.6 4.79 81.95 3.65 84.22 2.44 86.35 1.68 88.47 1 92.03 1 94.54 1 95.98 1 97.19 1 97.95 1 98.86 1 99.77 1 101.06 1 103.48 1.38 104.62 1.76 106.06 2.52 107.35 3.35 109.93 5.7 111.37 6.92 113.87 8.43 116.83 9.64 119.03 11.01 121 12.83 124.72 15.94 125.78 16.93 126.46 17.91 128.13 19.58 129.42 21.25 130.41 22.46 131.54 25.11 132.07 26.63 132.83 28 134.27 30.57 134.73 31.79 135.18 33.46 135.56 35.05 136.25 38.61 136.78 40.74 137.31 43.16 137.31 45.13 137.69 46.35 138.22 47.26 138.59 47.86 138.97 49.15 139.5 50.67 140.04 52.79 140.49 55.37 140.87 57.87 141.25 59.54 141.63 61.44 142.46 68.26 142.84 69.63 142.84 70.77 142.84 72.21 142.46 73.52 140.59 74.13" />
    <polyline class="cls-1" points="72.68 25.65 74.78 24.39 75.64 23.88 76.94 23.48 78.02 23.2 78.82 22.84 79.79 22.35 79.79 21.21 80.13 20.58 80.13 19.96 80.13 18.08 80.13 16.26 79.79 15.58 79.79 14.9 80.41 14.9 82.35 14.55 87.69 14.21 90.99 13.87 94.35 13.53 96.68 13.53 101.51 13.53 105.84 13.82 108.57 14.21 110.78 14.9 111.75 15.29 113.17 16.55 113.63 18.02 113.63 19.22 113.34 20.3 112.03 21.27 110.5 21.78 107.6 21.44 105.61 21.15 103.33 20.87 101.06 20.64 98.33 20.36 95.31 20.36 92.87 20.36 90.03 20.53 88.2 20.75 86.21 21.04 84.73 21.32 83.71 21.44 81.83 22.06 80.64 22.35" />
    <polyline class="cls-1" points="112.26 15.24 113.63 15.75 114.54 16.15 115.39 16.72" />
    <polyline class="cls-1" points="111.01 22.52 112.72 22.84 113.83 23.37 114.82 23.83 115.39 24.45 115.73 24.85 115.39 23.2 115.39 22.12 115.39 20.7 115.39 19.28 115.73 18.02 115.73 17.29 115.73 16.43" />
    <polyline class="cls-1" points="80.19 14.1 79.79 12.96 79.79 11.94 79.99 10.63 80.19 9.95 80.53 9.44" />
    <polyline class="cls-1" points="107.71 13.53 105.49 12.79 103.9 12.34 102.88 11.77 101.8 11.26 100.55 10.8 99.86 10.06 98.39 9.44 97.87 8.98 97.36 8.47 96.96 8.13 96.05 7.73 95.03 7.11 93.93 6.59 92.75 5.97 91.84 5.11 90.94 4.2 90.54 3.52 89.34 2.78 88.55 2.5 87.47 2.5" />
    <polyline class="cls-1" points="108 13.53 107.31 12.79 106.46 12.17 105.78 11.77 105.15 11.48 104.41 11.14 103.67 10.74" />
    <polyline class="cls-1" points="107.71 12.39 106.58 11.43 105.84 10.97 104.75 10.74 103.67 10.06 103.22 9.44 102.77 8.87" />
    <polyline class="cls-1" points="104.41 10.06 103.67 8.64 103.67 7.33 103.67 6.42 103.67 5.68" />
    <polyline class="cls-1" points="111.01 11.54 109.99 10.74 108.91 10.06 108.28 9.44 107.71 8.58 106.92 7.87 106.29 7.16 105.84 6.59 104.98 6.2 104.04 5.68 103.39 5.23" />
    <polyline class="cls-1" points="112.26 11.54 111.41 10.63 110.56 8.87 109.76 8.38 108.68 7.11 108 6.25 106.35 5.23 105.24 4.54 104.41 4.03 102.77 3.35 100.66 2.1 99.52 1.65" />
    <polyline class="cls-1" points="100.2 4.26 98.67 3.86 97.59 3.35 96.28 3.07 94.23 2.78 93.15 2.78 92.24 2.5" />
    <polyline class="cls-1" points="93.93 8.64 92.24 8.38 91.28 8.02 89.57 7.87 87.47 7.45 85.42 7.45 84.51 7.87 82.8 8.38 81.44 8.87 80.16 8.87" />
    <polyline class="cls-1" points="93.15 9.15 91.5 9.44 90.88 10.35 89.85 11.54 89.23 12.14 88.6 13.13 88.26 13.53 87.47 15.01 87.04 15.64" />
    <polygon class="cls-1" points="85.76 61.82 85.13 61.25 84.11 60.64 83.09 60.17 82.06 59.66 81.32 59.15 80.24 58.86 78.76 58.86 76.89 58.86 75.41 58.86 74.21 59.15 73.3 59.77 71.65 60.64 70.92 61.25 70.92 61.82 72.28 62.27 73.87 62.67 74.56 62.67 76.15 62.67 78.34 62.67 79.9 62.67 81.55 62.22 83.31 62.16 84.62 61.93 85.76 61.82" />
    <polyline class="cls-1" points="82.69 56.3 81.72 55.79 80.53 55.11 79.5 54.71 78.08 54.42 76.83 54.42 74.44 54.42 72.34 55.05 70.92 55.85 69.55 56.93 68.81 57.72" />
    <polygon class="cls-1" points="88.43 52.55 87.58 52.83 86.44 51.75 84.96 51.13 83.14 50.78 80.3 50.44 77.97 50.44 76.32 49.99 74.1 49.99 71.77 49.99 68.81 50.56 66.76 50.9 63.98 52.15 63.01 52.83 61.13 54.42 60.34 55.39 60.85 53.17 62.9 49.99 65.63 47.66 69.44 45.61 76.49 44.93 78.34 44.93 81.32 45.38 84.22 46.41 86.21 46.97 86.67 47.71 87.41 49.02 88.09 51.3 88.43 52.21 88.43 52.55" />
    <polyline class="cls-1" points="73.61 59.56 73.61 60.28 73.61 61.08 73.93 61.88 74.38 62.39 74.56 62.67" />
    <path class="cls-1" d="M265,284.45" transform="translate(-184.29 -225.48)" />
    <polyline class="cls-1" points="79.42 62.67 79.73 62.47 79.99 62.27 80.3 61.88 80.67 61.28 80.81 60.64 80.81 59.88 80.67 59.23 80.38 58.97" />
    <polygon class="cls-1" points="103.79 52.21 102.25 51.81 102.59 50.16 103.79 48.4 105.44 47.26 106.63 46.63 108.11 46.12 111.35 45.84 113.46 45.84 116.3 46.18 118.52 46.41 120.17 47.37 121.53 48 122.78 49.02 124.21 50.16 125.4 50.67 126.31 52.21 126.71 53.46 127.11 54.77 127.33 55.39 124.6 53.91 122.95 53.29 121.76 52.15 120.11 51.47 118.58 51.18 116.58 51.18 114.79 51.18 112.89 51.3 110.78 51.35 108.51 51.41 106.23 51.64 104.41 52.03 103.79 52.21" />
    <polygon class="cls-1" points="104.13 62.67 104.13 61.93 104.93 61.42 105.84 61.11 107.37 60.64 109.08 60.17 110.39 60.17 112.38 60.17 113.91 60.17 115.22 60.64 116.76 61.42 118.06 62.33 118.41 62.67 118.41 63.18 117.38 63.18 116.3 63.47 114.79 63.87 112.94 63.87 111.27 63.87 109.65 63.47 108.28 63.35 106.69 63.3 105.49 63.18 104.58 63.13 104.13 62.67" />
    <polyline class="cls-1" points="114.61 63.71 114.95 63.49 115.3 63.11 115.48 62.84 115.64 62.46 115.75 62.14 115.75 61.86 115.75 61.65 115.75 61.36 115.64 61.08 115.67 60.87" />
    <polyline class="cls-1" points="109.46 63.33 109.17 62.99 108.96 62.48 108.83 62.02 108.74 61.55 108.74 61.17 108.74 60.87 108.74 60.64 108.74 60.45 108.74 60.36" />
    <polyline class="cls-1" points="108.07 56.62 110.39 55.71 111.6 55.39 113.57 55.39 115.75 55.56 116.26 55.75 117.44 56.24 118.01 56.62 118.41 56.85 119.18 57.49 119.56 57.95 120.05 58.41 120.36 58.86" />
    <polyline class="cls-1" points="97.08 79.83 97.57 79.49 97.95 79.26 98.14 78.99 98.4 78.69 98.63 78.69 99.09 78.35 99.5 78.08 100.19 77.89 100.53 77.74 101.1 77.74 101.47 77.74 101.93 77.93 102.31 78.16 102.69 78.5 102.92 78.78 103.11 79.18 103.11 79.83 103.11 80.4 102.69 80.62 102.23 80.85 101.63 80.85 101.02 80.55 100.49 80.21" />
    <polyline class="cls-1" points="100.49 82.06 101.51 82.56 102.54 82.82 103.11 82.82 103.6 82.63 103.86 82.44 104.13 82.06 104.81 81.57 105.38 80.85 105.72 80.59 105.95 80.21 106.22 79.75 106.44 79.3 106.44 78.73 106.44 77.97 106.44 77.4 106.18 76.87 105.95 76.34 105.65 75.85 105.19 75.13 104.55 74.37 104.28 74.13" />
    <polyline class="cls-1" points="92.79 78.96 92.3 78.47 91.81 78.12 91.35 77.74 90.59 77.48 89.99 77.48 89.19 77.48 88.39 77.74 87.56 78.05 87.33 78.47 87.14 78.69" />
    <polygon class="cls-1" points="88.51 78.73 88.51 78.96 87.98 79.3 87.37 79.3 86.76 79.3 86.19 79.3 85.76 78.96 85.17 78.47 84.79 78.01 84.41 77.74 84.03 77.14 83.88 76.57 83.88 75.69 84.11 75.09 84.38 74.29 84.91 73.65 85.51 73.23 86.19 73.04 86.8 73.04 86.95 73.27 86.8 73.53 86.19 73.61 85.76 73.76 85.13 74.13 84.75 74.48 84.56 75.01 84.38 75.85 84.34 76.61 84.75 77.25 85.32 77.74 85.76 78.22 86.19 78.65 86.76 78.96 87.48 78.96 88.13 78.77 88.36 78.47 88.51 78.73" />
    <polyline class="cls-1" points="87.14 79.53 87.64 79.83 88.32 79.83 88.89 79.53 89.27 79.3" />
    <polyline class="cls-1" points="88.51 81.38 87.75 81.72 86.5 81.72 85.76 81.12 84.75 80.36 84.11 79.56" />
    <polygon class="cls-1" points="96.47 89.72 95.64 89.72 95.22 89.95 94.8 90.29 94.08 90.67 93.55 90.86 92.79 90.48 92.22 90.06 91.73 89.72 91.24 89.46 89.97 89.46 88.89 89.61 87.79 89.84 86.19 90.44 85.32 91.13 84.11 91.7 83.24 92.57 82.37 93.33 81.49 93.93 81.15 94.27 80.7 94.58 80.2 94.84 80.36 95.15 80.66 95.34 81.61 95.34 82.29 95.34 82.86 95.34 83.69 95.07 84.45 94.81 85.28 94.58 86.54 94.46 88.51 94.54 89.97 94.58 91.16 94.58 92.34 94.61 92.6 94.84 92.79 95.07 93.4 94.96 93.74 94.73 94.08 94.54 95.03 94.58 96.66 94.61 97.91 94.73 99.2 94.77 100.49 95.03 101.51 95.34 102.61 95.68 103.47 95.68 104.36 96.09 105.19 96.36 106.44 96.66 107.09 96.66 107.81 96.66 107.81 96.32 107.09 96.09 106.44 95.87 105.42 95.11 104.7 94.39 103.47 93.48 102.54 92.83 101.59 92.3 100.34 91.43 99.24 90.94 98.1 90.29 97.72 89.99 97.08 89.69 96.66 89.69 96.47 89.72" />
    <polyline class="cls-1" points="92.34 94.39 92.64 94.2 93.06 94.2 93.4 94.2 93.63 94.39" />
    <polygon class="cls-1" points="92.07 100.08 92.34 100.42 92.79 100.68 93.17 100.68 93.63 100.68 93.93 100.19 94.01 99.7 94.01 99.24 93.93 99.01 93.4 98.82 92.64 98.82 92.07 98.82 91.88 99.28 91.88 99.62 92.07 100.08" />
    <polyline class="cls-1" points="87.3 97.19 88.51 97.65 89.61 97.8 90.56 97.99 91.35 97.99 92.34 97.99 94.54 97.99 95.98 97.99 97.83 97.76 98.94 97.59" />
    <polyline class="cls-1" points="128.97 93.67 128.97 94.77 128.81 96.13 128.81 97 128.66 97.84 128.66 98.67 128.47 99.75 128.47 100.68 128.21 101.89 127.9 102.65 127.49 103.68 127.07 105 126.84 106.1 126.16 106.94 125.67 107.85 125.14 108.61 124 110.12 122.97 111.6 122.33 112.7 121.8 113.53 121.15 114.29 120.4 115.32 119.64 116.15 118.77 116.99 117.63 117.74 116.49 118.47 115.24 119.22 114.1 119.87 112.36 121.12 111.03 121.72 109.67 122.52 108.53 123.58 106.9 124.53 105 125.44 103.3 126.12 101.93 126.43 100.49 126.77 98.86 127 97.34 127 96.09 127.19 95.3 127.19 94.65 127.19 93.55 127.19 92.56 127.19 91.47 127.19 90.63 127.19 89.83 126.96 89.11 126.96 88.28 126.73 87.41 126.47 86.46 126.09 85.51 125.82 84.03 125.56 82.97 125.29 82.1 124.91 80.92 124.34 80.2 123.81 78.69 122.79 77.7 121.92 76.91 121.16 76.26 120.51 75.69 120.21 74.82 119.75 73.53 119.15 72.66 118.65 71.37 117.9 70.23 117.21 69.44 116.8 68.53 116.15 67.35 115.36 66.17 114.52 65.72 114.22 64.62 113.46 63.41 112.55 62.61 111.83 62.01 111.15 61.63 110.65 61.09 109.82 60.64 109.29 59.99 108.3 59.5 107.55 58.74 106.6 58.29 105.31 58.02 104.25 57.8 103.18 57.57 102.31 57.38 101.78 57.38 100.57 57.38 99.54 57.19 97.42 57.19 96.4 57.19 94.77" />
    <polyline class="cls-1" points="85.78 107.24 87.3 106.79 88.28 106.52 90.03 106.29 91.5 106.1 92.56 106.1 94.01 106.1 95.03 106.1 96.36 106.1 97.68 106.29 98.94 106.52 99.66 106.9 100.6 107.24" />
    <polyline class="cls-1" points="52.49 73.04 52.49 73.7 52.83 74.13 53.11 74.73 52.8 75.35 52.49 76.17 52.09 76.78 51.75 77.74 51.75 78.96 51.52 79.56 51.52 80.64 51.92 81.27 52.32 81.72 52.72 81.72 53.11 82.82 52.72 83.26 51.86 83.26 51.35 82.82 50.67 82.82 50.21 82.18 50.21 81.72 50.78 81.33" />
    <polyline class="cls-1" points="50.21 80.85 49.36 81.16 49.08 81.16 48.22 81.16 47.6 80.85 47.08 80.36 46.46 79.83 46.46 78.96 46.46 77.48 46.46 76.83" />
    <polyline class="cls-1" points="45.95 82.58 45.44 81.72 45.02 80.85 44.75 79.83" />
    <polyline class="cls-1" points="50.21 70.06 49.25 71.14 49.25 71.94 49.73 73.04 50.21 74.13 50.21 74.78" />
    <polyline class="cls-1" points="47.65 79.83 47.65 78.47 47.65 77.74 48.34 76.83 48.96 76.17 49.47 76.17 50.21 76.83" />
    <polyline class="cls-1" points="133.48 74.73 133.76 75.87 134.16 76.95 134.61 77.74 134.96 78.22 135.3 79.73 135.3 80.85 135.3 81.44 135.69 82.18 135.47 82.82 134.59 83.37 133.82 83.94 133.48 84.45" />
    <polyline class="cls-1" points="136.21 82.58 136.55 83.15 136.21 83.94 135.3 84.45 134.59 84.23" />
    <polyline class="cls-1" points="136.89 82.18 137.97 82.58 138.94 82.18 139.34 81.33 139.34 80.19 138.94 78.96 138.43 77.74 138.11 76.72 137.4 75.18 136.89 74.44 136.55 72.51 136.55 71.6 136.55 70.86" />
    <polyline class="cls-1" points="140.36 83.83 140.87 82.82 141.21 82.06 141.61 81.27 141.61 80.53 141.61 79.59 140.98 78.71" />
    <polyline class="cls-1" points="137.99 65.76 137.99 64.4 137.99 63.33 137.76 61.29 137.34 59.31 136.81 56.81 136.09 54.08 135.49 51.66 134.92 50.18 133.97 47.79 132.79 46.01 131.88 44.45 130.67 42.48 129 40.32 127.33 38.69 126.27 37.56 125.74 37.02" />
    <polyline class="cls-1" points="49.25 67.13 49.95 67.96 50.78 68.53 51.27 68.98 52.15 70.06 53.28 71.14 54 71.64 54.38 72.42 54.69 73.04 54.69 73.91 54.42 74.41 55.14 73.91 55.63 73.04 55.63 72.13 56.09 71.07 56.09 69.67 55.82 68.53 55.75 66.9 55.71 64.97 55.63 63.94 55.52 62.88 55.41 61.82 55.63 60.77 56.09 59.28 56.09 58.14 56.28 57.31 56.47 56.66 56.51 55.8" />
    <polyline class="cls-1" points="60.92 109.62 61.09 110.96 61.28 112.63 61.47 115.58 61.47 117.97 61.66 123.05 61.51 127.56 61.13 131.2 60.92 132.57 60.68 133.4" />
    <polyline class="cls-1" points="126.55 106.46 126.31 111.19 126.01 115.47 126.01 118.77 125.86 123.92 126.05 127.56 126.39 132.23 126.8 137.5 126.95 139.28 126.95 139.93" />
    <polyline class="cls-1" points="134.24 98.13 133.93 100.68 133.48 102.94 132.57 106.67 131.66 110.43 130.8 113.12 129.84 115.79 128.97 118.12 128.41 120.23 127.79 122.05 126.95 123.19 126.41 123.92 125.87 124.27" />
    <polyline class="cls-1" points="133.02 97.59 132.4 101.91 132 104.02 131.49 106.1 130.97 108.4 130.46 110.43 130.06 112.04 129.67 113.35 128.97 115.22 128.24 117.16" />
    <polyline class="cls-1" points="61.62 124.27 57.72 123.19 53.11 120.85 48.93 117.16 45.95 113.69 44.34 109.62 43.05 102.2 43.05 97.59 43.05 93.67 43.05 89 43.84 84.45 43.84 83.26" />
    <polyline class="cls-1" points="88.89 133.4 91.84 138.37 93.08 140.42 93.08 142.24 92.41 143.38 92.3 144.51 93.89 144.51 94.58 146.56 93.08 147.47 92.64 149.86 91.73 151.56 89.91 152.25" />
    <polyline class="cls-1" points="86.27 156.91 85.13 158.73 86.27 160.66 86.27 161.69 85.13 163.05 84.22 165.56 84.22 167.26 84.22 169.42 88.2 171.47 91.73 174.43 93.08 177.84 93.78 179.32 94.58 180.23" />
    <polyline class="cls-1" points="238.69 187.62 239.98 188.42 241.39 189.41 243.47 190.77 244.61 191.53 247.41 193.39 249.8 195.21 250.98 196.16 252.61 197.44 254.35 198.88 256.97 200.74 259.02 202.3 261.67 204.69 263.42 205.86 264.67 206.73 265.73 207.53 267.02 208.78 268.12 209.81 269.67 211.28 271.04 212.72 271.91 214.05 272.44 215.19 272.86 215.87 273.73 217.12 274.79 218.68 275.81 220.23 277.22 222.51 277.9 223.91 278.2 224.48 278.54 225.24 279.15 226.45 279.53 227.59 279.87 228.19 280.25 229.48 280.52 230.77 280.71 232.02 280.71 233.35 280.71 235.25 280.4 236.95 279.64 238.7 278.58 240.1 277.22 241.35 275.63 242.83 273.56 244.5 272.25 245.64 270.71 247.57 270.09 248.48 268.72 250.81 268.1 252.06 267.36 253.03 266.17 254.68 265.82 255.42 265.2 256.5 264.57 257.41 263.61 258.55 262.58 259.29 261.67 259.97 259.7 261.28 257.69 262.36 255.98 263.44 253.99 264.46 251.15 265.88 248.65 267.13 247.06 267.76 244.1 269.07 241.14 270.2 237.04 271.8 235.17 272.31 231.7 273.56 229.59 274.36 228 274.98 226.13 275.72 223.34 276.75 220.66 277.94 218.05 279.08 215.72 280.16 213.04 281.35 210.6 282.38 207.7 283.57 205.42 284.65 203.21 285.73 199.62 287.21 197.97 288.18 195.7 289.14 193.37 290.28 190.63 291.36 188.3 292.61 186.26 293.35 183.7 294.32 181.31 295.29 179.2 296.31 177.5 297.22 176.19 298.59 174.94 300.12 173.4 302.45 172.72 303.88 171.81 305.98 170.62 307.86 169.88 308.99 169.36 310.36 168.34 312.52 167.15 314.8 166.24 316.22 165.38 317.64 164.25 319.12 163 320.82 161.91 322.02 160.38 324.07 159.3 325.15 158.22 326.23 156.17 328.33 154.41 330.04 152.64 331.46 150.54 333.11 149 334.59 147.13 336.18 145.31 337.66 144 338.8 142.92 339.71 142.52 340.05" />
    <polyline class="cls-1" points="9.95 340.05 9.21 339.14 8.52 338.06 7.56 336.29 6.7 334.59 5.96 333.11 5.11 331.12 4.14 329.41 3.52 328.1 2.78 326.28 2.32 325.09 1.81 323.89 1.24 322.81 0.96 321.85" />
    <polyline class="cls-1" points="0.96 264.12 2.38 266 3.01 266.79 4.2 268.16 6.19 270.49 7.44 272.2 8.58 273.39 11.25 276.52 14.32 279.99 15.12 280.78 16.54 282.26 18.7 284.54 20.35 286.13 22.12 287.84 23.43 289.03 24.56 290.06 25.53 291.02 27.07 292.33 28.54 293.69 29.57 294.66 31.05 296.08 33.44 297.96 35.65 299.38 38.27 300.8 40.6 301.88 41.91 302.51 43.73 303.42 44.92 303.93 47.03 304.9 48.51 305.41 49.81 305.81 52.15 306.43 53.28 306.78 54.36 307.23 56.87 307.69 60.39 308.77 64.26 310.07 68.53 311.55 72.28 313.15 73.93 314.17 76.15 315.42 77.51 316.22 79.33 317.41 80.7 318.61 82.52 320.14 85.3 321.96 87.35 322.87 89.46 324.01 91.11 325.2 93.1 326.34 94.86 327.7 96.39 328.9 97.42 330.21 98.78 331.57 100.2 333.45 102.14 335.78 103.45 337.55 104.58 338.8 105.55 339.76 105.95 340.05" />
    <polyline class="cls-2" points="71.71 331.86 73.19 333.85 74.27 334.81 76.43 336.18 78.08 337.43 79.62 338.45 81.15 339.48 81.89 340.05" />
    <polyline class="cls-1" points="90.79 324.98 92.02 324.29 93.67 323.21 95.14 322.3 96.34 321.34 97.47 320.31 98.22 319.52 98.9 318.66 99.41 317.92" />
    <polyline class="cls-1" points="100.85 334.23 102.08 333.22 103.33 332.37 104.75 331.52 106.4 330.49 107.43 329.87 108.74 329.01 109.93 328.44 110.78 327.99" />
    <polyline class="cls-1" points="77.29 316.09 79.03 315.06 80.36 314.34 82.18 313.2 83.69 312.18 85.85 310.78 87.56 309.49 88.77 308.62 89.95 307.7 91.12 306.8 92.07 306.04 93.25 304.67 93.97 303.8 94.84 303.08 96.17 302.08 97.99 300.97 101.74 298.64 104.98 296.54 106.86 295.74 109.48 294.43 112.09 293.35 114.54 292.1 117.72 290.91 119.77 290.23 121.93 289.31 124.95 288.12 127.62 286.76 129.38 285.56 132.28 283.86 135.18 282.21 136.43 281.47 137.53 280.82 139.13 279.95 140.41 279.08 141.36 278.36 143.15 276.95 144.81 275.78 146.48 274.57 148.42 273.35 149.4 272.71 151.11 271.65 152.74 270.43 155.28 268.84 157.44 267.48 159.68 266.15 161.53 264.9 163.16 263.84 165.06 262.7 166.43 261.79 168.4 260.46 169.69 259.74 170.44 259.36 172.07 258.38 173.06 257.73 174.62 256.9 176.47 255.87 178.03 254.89 179.7 253.9 181.18 252.99 182.58 252.16 183.91 251.21 185.65 250.07 187.28 248.9 188.3 248.14 189.14 247.57 190.12 246.77 191.3 245.9 192.59 244.84 193.99 243.85 195.09 242.94 196.42 241.73 197.9 240.48 198.96 239.38 200.1 238.2 200.97 237.33 201.95 235.97 202.94 234.79 204.46 233.28 205.71 231.95 207.19 230.58 208.47 229.18 209.76 228 210.45 227.21 211.01 226.56 211.32 226.15 208.44 224.02 206.77 221.9 204.49 219.02 203.05 217.12 202.33 215.99 201.8 214.62 201.38 213.29 201.23 211.81 201.23 210.15 201.46 207.83 201.95 206.09 202.71 203.66 203.7 201.39 206.09 197.67 208.36 194.75 210.1 192.82 212.27 190.77 214.77 188.57 217.04 186.75 219.66 185.05 221.52 183.98 222.96 183.19 224.63 182.54 225.84 182.32 227.51 182.32 229.03 182.5 230.13 182.81 231.53 183.57 232.74 184.29 234.11 185.12 235.21 185.8 236.61 186.56 237.48 187.17 238.69 187.17 238.01 185.73 237.25 184.82 235.59 183.23 233.61 181.18 231.49 179.21 229.14 176.55 227.4 174.73 226.18 173.59 224.97 171.78 223.38 169.2 222.47 167.45 221.18 165.56 218.83 162.68 215.94 159.79 213.22 156.91 210.49 154.71 207.68 152.36 204.65 150.31 201.61 148.27 198.96 146.67 197.37 145.84 196.3 145.01 195.7 143.64 193.8 142.2 191.15 141.75 186.75 141.52 185 141.9 182.43 142.2 180.23 142.73 178.33 142.73 176.59 142.73 174.24 142.28 170.98 141.21 167.64 139.93 165.9 139.17 162.48 138.48 158.99 138.1 155.28 138.1 152.85 137.8 150.96 137.35 149.89 136.82 148.15 136.21 146.1 135.53 144.21 135.07 142.16 134.54 140.87 134.01 138.97 133.48 137.91 132.8 137 132.8 135.56 132.49 133.02 132.11 133.02 131.66 132.22 131.36 131.62 130.9 131.01 130.9 130.06 130.22 128.59 129.54 127.6 129.54 126.16 129.16" />
    <line class="cls-1" x1="212.34" y1="225.39" x2="211.32" y2="226.15" />
    <polyline class="cls-1" points="45.35 88.89 45.66 88.06 45.95 87.33 46.46 86.5 47.29 85.78 48.05 85.1 48.93 84.76 50.06 84.57 51.2 84.57 52.11 84.8 52.68 85.21 53.66 86.01 54.19 86.46 54.61 87.07 54.8 87.6 54.8 88.51 54.8 89.99 54.53 90.94 54.19 91.96 53.74 92.68 53.11 93.67 52.33 94.31 51.35 94.99 50.63 95.34 49.53 95.34 48.34 95.34 47.22 95.34 46.46 94.96 45.93 94.43" />
    <polyline class="cls-1" points="46.12 94.16 46.46 94.5 46.84 94.73 47.65 94.92 48.7 94.92 49.73 94.54 50.36 94.16 51.12 93.44 51.66 92.8 52.15 92.08 52.52 91.39 52.88 90.82 53.11 90.14 53.28 89.46 53.59 88.55 53.59 87.83 53.59 87.22 53.4 86.69 53.11 86.24 52.88 85.78 52.33 85.44 52.03 85.1" />
    <polygon class="cls-1" points="141.29 93.67 140.98 94.5 140.36 95.18 139.73 95.79 139.01 96.09 138.1 96.09 137.12 96.09 136.21 95.64 135.03 94.88 134.59 94.35 133.48 93.06 132.68 91.43 132.41 90.56 132.41 89.46 132.41 87.98 133.02 86.8 133.7 86.2 134.43 85.67 135.34 85.29 136.55 85.29 137.38 85.48 138.22 86.01 139.13 87.07 139.92 88.17 140.36 89.12 140.83 89.88 140.98 90.56 141.29 91.13 141.43 92.17 141.43 92.76 141.43 93.52 141.29 93.67" />
    <polyline class="cls-1" points="139.58 95.45 139.05 95.6 138.18 95.6 136.92 95.26 136.09 94.65 135.37 93.67 134.59 92.45 133.97 91.39 133.67 89.99 133.48 88.7 133.7 87.18 134.24 86.39 134.92 85.78" />
</svg>
